HIERARCHY
ROOT Hips
{
    OFFSET 0.0 0.0 0.0
    CHANNELS 6 Xposition Yposition Zposition Zrotation Xrotation Yrotation
    JOINT LeftHipJoint
    {
        OFFSET 0.1 0.0 0.0
        CHANNELS 3 Zrotation Xrotation Yrotation
        JOINT LeftUpLeg
        {
            OFFSET 119.85381615780096 0.0 0.0
            CHANNELS 3 Zrotation Xrotation Yrotation
            JOINT LeftLeg
            {
                OFFSET 0.0 0.0 -412.9718270789973
                CHANNELS 3 Zrotation Xrotation Yrotation
                JOINT LeftFoot
                {
                    OFFSET 0.0 0.0 -398.7974101706648
                    CHANNELS 3 Zrotation Xrotation Yrotation
                    End Site
                    {
                        OFFSET 0.0 -0.1 0.0
                    }
                }
            }
        }
    }
    JOINT LowerBack
    {
        OFFSET 0.0 0.0 0.1
        CHANNELS 3 Zrotation Xrotation Yrotation
        JOINT Spine
        {
            OFFSET 0.0 0.0 218.88417792307808
            CHANNELS 3 Zrotation Xrotation Yrotation
            JOINT Spine1
            {
                OFFSET 0.0 0.0 251.50486621926677
                CHANNELS 3 Zrotation Xrotation Yrotation
                JOINT LeftShoulder
                {
                    OFFSET 0.1 0.0 0.0
                    CHANNELS 3 Zrotation Xrotation Yrotation
                    JOINT LeftArm
                    {
                        OFFSET 140.46837118990607 0.0 0.0
                        CHANNELS 3 Zrotation Xrotation Yrotation
                        JOINT LeftForeArm
                        {
                            OFFSET 257.77227847780966 0.0 0.0
                            CHANNELS 3 Zrotation Xrotation Yrotation
                            JOINT LeftHand
                            {
                                OFFSET 244.83720370855 0.0 0.0
                                CHANNELS 3 Zrotation Xrotation Yrotation
                                End Site
                                {
                                    OFFSET 0.1 0.0 0.0
                                }
                            }
                        }
                    }
                }
                JOINT Neck
                {
                    OFFSET 0.0 0.0 0.1
                    CHANNELS 3 Zrotation Xrotation Yrotation
                    JOINT Neck1
                    {
                        OFFSET 0.0 0.0 106.74223717821462
                        CHANNELS 3 Zrotation Xrotation Yrotation
                        End Site
                        {
                            OFFSET 0.0 0.0 115.87517213852402
                        }
                    }
                }
                JOINT RightShoulder
                {
                    OFFSET -0.1 0.0 0.0
                    CHANNELS 3 Zrotation Xrotation Yrotation
                    JOINT RightArm
                    {
                        OFFSET -140.46837118990607 0.0 0.0
                        CHANNELS 3 Zrotation Xrotation Yrotation
                        JOINT RightForeArm
                        {
                            OFFSET -257.77227847780966 0.0 0.0
                            CHANNELS 3 Zrotation Xrotation Yrotation
                            JOINT RightHand
                            {
                                OFFSET -244.83720370855 0.0 0.0
                                CHANNELS 3 Zrotation Xrotation Yrotation
                                End Site
                                {
                                    OFFSET -0.1 0.0 0.0
                                }
                            }
                        }
                    }
                }
            }
        }
    }
    JOINT RightHipJoint
    {
        OFFSET -0.1 0.0 0.0
        CHANNELS 3 Zrotation Xrotation Yrotation
        JOINT RightUpLeg
        {
            OFFSET -119.85381615780096 0.0 0.0
            CHANNELS 3 Zrotation Xrotation Yrotation
            JOINT RightLeg
            {
                OFFSET 0.0 0.0 -412.9718270789973
                CHANNELS 3 Zrotation Xrotation Yrotation
                JOINT RightFoot
                {
                    OFFSET 0.0 0.0 -398.7974101706648
                    CHANNELS 3 Zrotation Xrotation Yrotation
                    End Site
                    {
                        OFFSET 0.0 -0.1 0.0
                    }
                }
            }
        }
    }
}
MOTION
Frames: 11
Frame Time: 0.03333333333333333
0.0 0.0 810.8956209485754 25.3074107258441 1.9999063028719974 7.261745014174839 -7.758819664541295e-34 -1.987846675914698e-16 -4.472655020808071e-16 -0.4362098637635849 -16.617525430061445 -6.027667085548047 -2.173009547104791 25.718063717599424 0.34685938424989354 -5.517382872562698e-33 -1.5902773407317584e-15 -3.975693351829396e-16 -7.758819664541295e-34 -1.987846675914698e-16 -4.472655020808071e-16 -0.06864505032157361 -2.682419656038424 -3.690799832544822 3.8842185969976537 1.2628226063926873e-16 7.91313548333666e-16 0.0 0.0 -1.4908850069360235e-16 -31.664251483904472 19.335409746701714 75.78448762903348 -27.557702027426377 3.6750617661718946e-15 -8.309119976020623e-15 0.0 0.0 8.547740706433203e-15 0.0 0.0 -1.4908850069360235e-16 -13.73315027664424 1.9257491166324079 -9.81418602680352 0.0 0.0 -1.4908850069360235e-16 5.379159554932735 -39.1234944500266 -44.33619537453811 125.87058218399267 3.0183226498685742e-15 -1.9887856889380268e-14 0.0 0.0 0.0 -7.758819664541295e-34 -1.987846675914698e-16 -4.472655020808071e-16 -0.2206417240914614 -8.53510081262086 -8.890034343146324 -2.3765939769239814 17.692325969833558 0.43555126478441447 0.0 0.0 -3.975693351829396e-16
0.0 0.0 810.8956209485754 25.237242742617138 1.734923319038808 7.058234576990162 0.0 0.0 -9.814992962328821e-16 -0.38259872820903973 -16.22647811038504 -5.814734387276228 -2.1498859491019684 25.76731651642072 0.4032138079034231 0.0 0.0 3.975693351829396e-16 0.0 0.0 -9.814992962328821e-16 -0.06165206953804081 -2.6767261013297414 -3.5255407962121965 3.874385058545322 -1.026953825562922e-16 -9.597567627447263e-17 0.0 0.0 -1.4908850069360235e-16 -31.78866425405486 19.725269029180293 75.96397108417048 -27.204561128044322 1.2622591042882243e-15 -5.2166452611109545e-15 0.0 0.0 4.969616689786745e-17 0.0 0.0 -1.4908850069360235e-16 -13.832265245332108 2.1291441103718856 -9.947385126186754 0.0 0.0 -1.4908850069360235e-16 5.808252740651676 -40.078212201770064 -43.38396959034171 125.58011483633481 -5.737216724439591e-15 4.202854347429626e-15 0.0 0.0 0.0 0.0 0.0 -9.814992962328821e-16 -0.19148872729391053 -8.224860968628976 -8.614312337328265 -2.3713265779940333 17.946379023091882 0.39321613859335214 0.0 0.0 0.0
0.0 0.0 810.8956209485754 25.272091708807395 1.5778974829257666 6.841219786629252 0.0 0.0 -3.773802673806809e-16 -0.32961950299757764 -16.04899161062509 -5.568490797149251 -2.1332006793353413 25.949403342983715 0.3318800463893688 0.0 0.0 -3.975693351829396e-16 0.0 0.0 -3.773802673806809e-16 -0.0536011321456651 -2.6681055901975848 -3.3378180939717486 3.8631831724956167 4.1074399989311543e-16 3.8394285916971247e-16 0.0 0.0 4.969616689786745e-17 -31.468915627807288 19.86457127805214 75.95225608922071 -26.97021050126392 -1.2386642654569101e-15 -8.473853281145565e-15 0.0 0.0 -2.7332891793827097e-15 0.0 0.0 4.969616689786745e-17 -13.948046563500094 2.1961280291347416 -9.941650294493884 0.0 0.0 4.969616689786745e-17 6.162520302712643 -40.94040778033611 -42.53303791355187 125.29752624042072 -2.824990070045389e-15 -1.4612868253441693e-15 1.987846675914698e-16 0.0 0.0 0.0 0.0 -3.773802673806809e-16 -0.16325599545278735 -8.031745714898273 -8.352859352147698 -2.3718914271306666 18.16440208275785 0.37220347799504205 0.0 0.0 0.0
0.0 0.0 810.8956209485754 25.432700166763915 1.250793525759931 6.546462976484699 0.0 0.0 2.546928553515707e-16 -0.2646258445925199 -15.852085023031853 -5.262627723440746 -2.106273630540702 26.096448162904185 0.38714119563059785 0.0 0.0 0.0 0.0 0.0 2.546928553515707e-16 -0.041755277573468245 -2.5520470692356367 -3.0330572742314263 3.868356814079908 1.3623660804288314e-16 1.0893381388472677e-15 0.0 0.0 -9.93923337957349e-17 -31.51738385108613 20.403295638288466 76.02535256206806 -26.849130505696024 6.764958918219495e-15 5.9064497018557854e-15 0.0 0.0 2.1369351766083005e-15 0.0 0.0 -9.93923337957349e-17 -14.140510575038277 2.3117384056804915 -10.059962357587303 0.0 0.0 -9.93923337957349e-17 6.542053790050919 -41.814522989841244 -41.812830820331484 125.0282449781263 2.9358425834909615e-15 -5.643096725387497e-15 -9.93923337957349e-17 -1.987846675914698e-16 -1.7241821476758432e-34 0.0 0.0 2.546928553515707e-16 -0.12597796512488782 -7.594941103286927 -7.999283899216898 -2.347288535249113 18.31847215409054 0.2073013547921861 0.0 0.0 0.0
0.0 0.0 810.8956209485754 25.532724409063903 0.9824182399326847 6.28518586311564 0.0 0.0 7.454425034680117e-17 -0.2109408925666328 -15.652662387192414 -4.98300465471638 -2.0856188260511326 26.371874628310504 0.38619961511459716 0.0 0.0 0.0 0.0 0.0 7.454425034680117e-17 -0.03359125051978067 -2.5376169422227557 -2.8054377259863954 3.824878264706167 -5.794371448237425e-16 5.165864809087041e-16 -3.1805546814635168e-15 9.93923337957349e-17 2.758691436281349e-33 -31.684078765098395 20.822351932106493 76.11131599042989 -26.82318820000603 -7.965079437027186e-15 -8.774643438367149e-16 0.0 0.0 -2.708441095933776e-15 -3.1805546814635168e-15 9.93923337957349e-17 2.758691436281349e-33 -14.284681501167263 2.3738059958819266 -10.066572745683311 -3.1805546814635168e-15 9.93923337957349e-17 2.758691436281349e-33 6.837493978428718 -42.5866693899023 -41.11691450059061 124.66989151046619 8.723894907624608e-15 -9.791038506255242e-15 1.987846675914698e-16 0.0 0.0 0.0 0.0 7.454425034680117e-17 -0.09814030162457255 -7.295828272752184 -7.709402228740064 -2.3642130677784228 18.713677436986416 0.15628945511843517 0.0 0.0 0.0
0.0 0.0 810.8956209485754 25.62205621610484 0.7640655438711871 6.026333340008898 0.0 0.0 5.715059193254755e-16 -0.16926015319889945 -15.492441558101588 -4.710530101973466 -2.040902763008868 26.566556484900662 0.3726434237410681 0.0 0.0 0.0 0.0 0.0 5.715059193254755e-16 -0.02702214248361719 -2.5124462597683586 -2.608288490455498 3.800551238652972 1.7560440831833805e-16 -7.019554121875506e-16 0.0 0.0 3.9756933518293955e-16 -31.82232601412628 21.24313437565992 76.25373468604913 -26.860157728532908 -4.801848760125359e-15 6.4151915480163696e-15 1.5902773407317588e-15 5.241513728934563e-32 3.776908684237927e-15 0.0 0.0 3.9756933518293955e-16 -14.407313841823782 2.3377693807224142 -10.098510824578236 0.0 0.0 3.9756933518293955e-16 7.304340302161027 -43.25191659144939 -40.33783779098592 124.0562648059449 3.1582078071589266e-15 -1.272778460051284e-14 -9.93923337957349e-17 0.0 0.0 0.0 0.0 5.715059193254755e-16 -0.07691086096652681 -7.018061887446726 -7.493599763522143 -2.365877768578156 18.910607373072235 0.2283775667307351 0.0 0.0 0.0
0.0 0.0 810.8956209485754 25.764588273301033 0.5157432787673523 5.794986532889109 0.0 0.0 1.2424041724466862e-16 -0.13397528546962367 -15.379272270478973 -4.480681799717695 -2.0283804537921672 27.008674700021785 0.3511812743204691 0.0 0.0 0.0 0.0 0.0 1.2424041724466862e-16 -0.021667386342095724 -2.519024767104882 -2.4699890367235673 3.863180399669071 -7.812862989643543e-16 4.241445513496602e-16 0.0 0.0 -1.987846675914698e-16 -32.05321340828089 21.665377795213924 76.41505168213865 -26.811090943850303 -1.921731182878137e-15 -1.2514819221647476e-14 0.0 0.0 -2.0251188010880986e-15 0.0 0.0 -1.987846675914698e-16 -14.612101041162965 2.3182115568837944 -10.039020073937955 0.0 0.0 -1.987846675914698e-16 7.515416927032755 -43.73015675391972 -39.7119146543497 123.91677870097556 3.665203589612808e-16 -1.4219149920514123e-14 0.0 0.0 0.0 0.0 0.0 1.2424041724466862e-16 -0.059068185740931096 -6.708250977218511 -7.28141407732272 -2.384499165123731 19.278939720107623 0.3473088783888381 0.0 0.0 0.0
0.0 0.0 810.8956209485754 25.875062117020956 0.10535397246806648 5.516456791122555 0.0 0.0 1.4908850069360235e-16 -0.0940541264340504 -14.944347111710206 -4.141810639957777 -1.9358119919469174 27.121780149479246 0.2474384980607509 0.0 -1.5902773407317584e-15 0.0 0.0 0.0 1.4908850069360235e-16 -0.015470297988458762 -2.471440634779157 -2.372429294715658 3.8936162067874482 1.3506095690295472e-17 3.973398566177437e-16 -3.1805546814635168e-15 -9.93923337957349e-17 -1.987846675914698e-16 -32.24270040335611 22.098805697723428 76.63165947211233 -26.698648426979933 -5.834742823394486e-16 -4.428860634172326e-15 0.0 0.0 1.6151254241806922e-16 -3.1805546814635168e-15 -9.93923337957349e-17 -1.987846675914698e-16 -14.802424161131118 2.41226599464492 -9.969731524160432 -3.1805546814635168e-15 -9.93923337957349e-17 -1.987846675914698e-16 7.6936903959557394 -44.278828596498585 -39.144919059326384 123.61939567054866 2.8032881721363783e-15 1.5024990867683666e-15 0.0 0.0 0.0 0.0 0.0 1.4908850069360235e-16 -0.03971944347512377 -6.1256602798942374 -6.961850157610854 -2.3291245060207926 19.35572955787761 0.30203672661993775 0.0 0.0 0.0
0.0 0.0 810.8956209485754 25.884046348570283 -0.2848305503607254 5.223588686395952 -2.586273221513765e-34 1.987846675914698e-16 1.4908850069360235e-16 -0.052324951891623395 -14.486422198407418 -3.8145021103822896 -1.8527493730948152 27.19073009866453 0.21339604170098522 0.0 0.0 3.975693351829396e-16 -2.586273221513765e-34 1.987846675914698e-16 1.4908850069360235e-16 -0.008957818224148095 -2.455567812035979 -2.286418815827654 3.9030549681625266 -8.579586167300266e-17 4.007234487959924e-16 0.0 0.0 9.939233379573489e-17 -32.3503552598245 22.52088315209356 76.9124441437263 -26.5663107703944 -5.808386102701191e-16 -1.4843055877838453e-14 0.0 0.0 2.1058750722971333e-15 0.0 0.0 9.939233379573489e-17 -14.798987549149897 2.6524337604240995 -9.876143910365307 0.0 0.0 9.939233379573489e-17 8.167451377924902 -44.62703678158826 -38.4825449747767 123.26837111796539 -2.575186453019416e-15 -8.619503430385139e-15 0.0 0.0 0.0 -2.586273221513765e-34 1.987846675914698e-16 1.4908850069360235e-16 -0.021907031157467526 -5.639836526715529 -6.656193729385485 -2.290370103825852 19.485443425942368 0.3109198417388115 0.0 0.0 0.0
0.0 0.0 810.8956209485754 25.859646323766615 -0.5820600063044867 4.998419734243201 -3.1805546814635168e-15 -5.517382872562698e-33 1.987846675914698e-16 -0.020617006090411623 -14.203291977735597 -3.5544489623030344 -1.7904236975119436 27.28772945503103 0.21930061828896685 0.0 0.0 0.0 -3.1805546814635168e-15 -5.517382872562698e-33 1.987846675914698e-16 -0.0037888586647317184 -2.4619254289605834 -2.2292260220803475 3.960090594636364 -6.678577417766114e-16 8.18702941677285e-16 0.0 0.0 0.0 -32.40385767249676 22.784711667698655 77.04832627353538 -26.281517062053044 8.056358413131156e-15 -2.751389186872251e-14 1.5902773407317588e-15 4.870814567184257e-33 3.5097917871618896e-16 0.0 0.0 0.0 -14.750194797230803 2.8676737651182562 -9.688355371966916 0.0 0.0 0.0 8.747942274065162 -44.748496961496535 -37.76447389067807 122.8002371768266 0.0 0.0 -1.4908850069360235e-16 0.0 0.0 -3.1805546814635168e-15 -5.517382872562698e-33 1.987846675914698e-16 -0.009591360837266439 -5.360531184467614 -6.415863999830958 -2.2784201771351107 19.73099670793382 0.3823293227788562 0.0 0.0 0.0
0.0 0.0 810.8956209485754 25.811548943350854 -0.7788241171081748 4.773431802306357 0.0 0.0 -1.987846675914698e-16 0.024707814733693507 -14.062207416068272 -3.302891622096184 -1.7609980041124818 27.350261696926918 0.2281102487036789 0.0 0.0 3.975693351829396e-16 0.0 0.0 -1.987846675914698e-16 0.004057360884842374 -2.5282057119172094 -2.228054631912824 3.9191081170194835 -1.7880157900576714e-15 6.117519211236268e-17 0.0 0.0 0.0 -32.8215893734415 22.93566734520754 77.28584757053993 -26.00121834601307 -2.7882165168099337e-15 1.9145618376675613e-14 0.0 0.0 -1.879136310825613e-15 0.0 0.0 0.0 -14.777221581029274 2.9460416818917285 -9.418988855997332 0.0 0.0 0.0 9.311066165013067 -44.978159709223746 -37.075368263285114 122.28826505623624 3.0699216724593883e-15 -5.5712918835833876e-15 2.9817700138720465e-16 0.0 0.0 0.0 0.0 -1.987846675914698e-16 0.007068479794498582 -5.217450031270002 -6.181763074922026 -2.2770521683378733 19.875970988081708 0.3794884377535044 3.1805546814635168e-15 0.0 0.0
